<mxfile host="app.diagrams.net" agent="Mozilla/5.0 (Windows NT 10.0; Win64; x64) AppleWebKit/537.36 (KHTML, like Gecko) Chrome/128.0.0.0 Safari/537.36" version="24.7.8" pages="4">
  <diagram id="f106602c-feb2-e66a-4537-3a34d633f6aa" name="Template Creation flow">
    <mxGraphModel dx="1647" dy="848" grid="1" gridSize="10" guides="1" tooltips="1" connect="1" arrows="1" fold="1" page="1" pageScale="1" pageWidth="1169" pageHeight="827" background="none" math="0" shadow="0">
      <root>
        <mxCell id="0" />
        <mxCell id="1" parent="0" />
        <mxCell id="wPMZ7e_VSZK2qsBKfFRd-1" value="Actor" style="shape=umlActor;verticalLabelPosition=bottom;verticalAlign=top;html=1;outlineConnect=0;" parent="1" vertex="1">
          <mxGeometry x="280" y="210" width="30" height="60" as="geometry" />
        </mxCell>
        <mxCell id="wPMZ7e_VSZK2qsBKfFRd-2" value="" style="sketch=0;outlineConnect=0;fontColor=#232F3E;gradientColor=none;fillColor=#01A88D;strokeColor=none;dashed=0;verticalLabelPosition=bottom;verticalAlign=top;align=center;html=1;fontSize=12;fontStyle=0;aspect=fixed;pointerEvents=1;shape=mxgraph.aws4.sagemaker_canvas;" parent="1" vertex="1">
          <mxGeometry x="490" y="230" width="40" height="40" as="geometry" />
        </mxCell>
        <mxCell id="wPMZ7e_VSZK2qsBKfFRd-3" value="" style="endArrow=classic;html=1;rounded=0;strokeWidth=2;" parent="1" source="wPMZ7e_VSZK2qsBKfFRd-1" edge="1">
          <mxGeometry width="50" height="50" relative="1" as="geometry">
            <mxPoint x="750" y="530" as="sourcePoint" />
            <mxPoint x="480" y="240" as="targetPoint" />
          </mxGeometry>
        </mxCell>
        <mxCell id="wPMZ7e_VSZK2qsBKfFRd-4" value="Developer pushes template to GitHub" style="edgeLabel;html=1;align=center;verticalAlign=middle;resizable=0;points=[];" parent="wPMZ7e_VSZK2qsBKfFRd-3" vertex="1" connectable="0">
          <mxGeometry x="-0.0353" relative="1" as="geometry">
            <mxPoint x="8" y="-30" as="offset" />
          </mxGeometry>
        </mxCell>
        <mxCell id="wPMZ7e_VSZK2qsBKfFRd-5" value="" style="shape=image;html=1;verticalAlign=top;verticalLabelPosition=bottom;labelBackgroundColor=#ffffff;imageAspect=0;aspect=fixed;image=https://cdn4.iconfinder.com/data/icons/ionicons/512/icon-social-github-128.png" parent="1" vertex="1">
          <mxGeometry x="530" y="190" width="30" height="30" as="geometry" />
        </mxCell>
        <mxCell id="wPMZ7e_VSZK2qsBKfFRd-26" style="edgeStyle=orthogonalEdgeStyle;rounded=0;orthogonalLoop=1;jettySize=auto;html=1;strokeWidth=2;entryX=-0.06;entryY=0.7;entryDx=0;entryDy=0;entryPerimeter=0;" parent="1" source="wPMZ7e_VSZK2qsBKfFRd-6" target="wPMZ7e_VSZK2qsBKfFRd-24" edge="1">
          <mxGeometry relative="1" as="geometry">
            <mxPoint x="690" y="415" as="targetPoint" />
          </mxGeometry>
        </mxCell>
        <mxCell id="wPMZ7e_VSZK2qsBKfFRd-6" value="" style="sketch=0;points=[[0,0,0],[0.25,0,0],[0.5,0,0],[0.75,0,0],[1,0,0],[0,1,0],[0.25,1,0],[0.5,1,0],[0.75,1,0],[1,1,0],[0,0.25,0],[0,0.5,0],[0,0.75,0],[1,0.25,0],[1,0.5,0],[1,0.75,0]];outlineConnect=0;fontColor=#232F3E;fillColor=#01A88D;strokeColor=#ffffff;dashed=0;verticalLabelPosition=bottom;verticalAlign=top;align=center;html=1;fontSize=12;fontStyle=0;aspect=fixed;shape=mxgraph.aws4.resourceIcon;resIcon=mxgraph.aws4.devops_guru;" parent="1" vertex="1">
          <mxGeometry x="485" y="390" width="50" height="50" as="geometry" />
        </mxCell>
        <mxCell id="wPMZ7e_VSZK2qsBKfFRd-10" value="" style="sketch=0;points=[[0,0,0],[0.25,0,0],[0.5,0,0],[0.75,0,0],[1,0,0],[0,1,0],[0.25,1,0],[0.5,1,0],[0.75,1,0],[1,1,0],[0,0.25,0],[0,0.5,0],[0,0.75,0],[1,0.25,0],[1,0.5,0],[1,0.75,0]];outlineConnect=0;fontColor=#232F3E;fillColor=#01A88D;strokeColor=#ffffff;dashed=0;verticalLabelPosition=bottom;verticalAlign=top;align=center;html=1;fontSize=12;fontStyle=0;aspect=fixed;shape=mxgraph.aws4.resourceIcon;resIcon=mxgraph.aws4.server_migration_service;" parent="1" vertex="1">
          <mxGeometry x="485" y="550" width="50" height="50" as="geometry" />
        </mxCell>
        <mxCell id="wPMZ7e_VSZK2qsBKfFRd-13" value="" style="endArrow=classic;html=1;rounded=0;entryX=0.5;entryY=0;entryDx=0;entryDy=0;entryPerimeter=0;exitX=0.5;exitY=1;exitDx=0;exitDy=0;exitPerimeter=0;strokeWidth=2;" parent="1" source="wPMZ7e_VSZK2qsBKfFRd-6" target="wPMZ7e_VSZK2qsBKfFRd-10" edge="1">
          <mxGeometry width="50" height="50" relative="1" as="geometry">
            <mxPoint x="750" y="570" as="sourcePoint" />
            <mxPoint x="800" y="520" as="targetPoint" />
          </mxGeometry>
        </mxCell>
        <mxCell id="wPMZ7e_VSZK2qsBKfFRd-14" value="" style="endArrow=classic;html=1;rounded=0;entryX=0.5;entryY=0;entryDx=0;entryDy=0;entryPerimeter=0;strokeWidth=2;" parent="1" target="wPMZ7e_VSZK2qsBKfFRd-6" edge="1">
          <mxGeometry width="50" height="50" relative="1" as="geometry">
            <mxPoint x="510" y="280" as="sourcePoint" />
            <mxPoint x="330" y="360" as="targetPoint" />
          </mxGeometry>
        </mxCell>
        <mxCell id="wPMZ7e_VSZK2qsBKfFRd-18" value="" style="endArrow=classic;html=1;rounded=0;entryX=0.75;entryY=1;entryDx=0;entryDy=0;entryPerimeter=0;exitX=0.75;exitY=0;exitDx=0;exitDy=0;exitPerimeter=0;dashed=1;" parent="1" source="wPMZ7e_VSZK2qsBKfFRd-10" target="wPMZ7e_VSZK2qsBKfFRd-6" edge="1">
          <mxGeometry width="50" height="50" relative="1" as="geometry">
            <mxPoint x="610" y="690" as="sourcePoint" />
            <mxPoint x="660" y="640" as="targetPoint" />
          </mxGeometry>
        </mxCell>
        <mxCell id="wPMZ7e_VSZK2qsBKfFRd-20" value="Pipeline is triggered and reads new template from GitHub and saves into the server File System" style="rounded=1;whiteSpace=wrap;html=1;" parent="1" vertex="1">
          <mxGeometry x="330" y="310" width="110" height="130" as="geometry" />
        </mxCell>
        <mxCell id="wPMZ7e_VSZK2qsBKfFRd-24" value="" style="image;aspect=fixed;html=1;points=[];align=center;fontSize=12;image=img/lib/azure2/compute/Azure_Spring_Cloud.svg;" parent="1" vertex="1">
          <mxGeometry x="830" y="380" width="50" height="50" as="geometry" />
        </mxCell>
        <mxCell id="wPMZ7e_VSZK2qsBKfFRd-27" value="Pipeline after saving template into server&#39;s File System, it gathers template&#39;s metadata (such as date, name, thumbnail etc) and executes a POST request to the Backend Application for it to get persisted in database." style="rounded=1;whiteSpace=wrap;html=1;" parent="1" vertex="1">
          <mxGeometry x="570" y="440" width="180" height="140" as="geometry" />
        </mxCell>
        <mxCell id="wPMZ7e_VSZK2qsBKfFRd-32" value="&lt;font style=&quot;font-size: 21px;&quot;&gt;&lt;b&gt;Forbys - Template Creation flow&lt;/b&gt;&lt;/font&gt;" style="text;html=1;align=center;verticalAlign=middle;whiteSpace=wrap;rounded=0;" parent="1" vertex="1">
          <mxGeometry x="400" y="50" width="320" height="30" as="geometry" />
        </mxCell>
        <mxCell id="-KxJSEzrI4wm_KJgbH0r-2" value="Cada template terá um metadata.json/yaml que, além de ter dados sobre o template, também mapeará cada elemento customizável do HTML dele para que possamos renderizar o formulário e termos um preview disponível para o usuário ir editando cada elemento dinamicamente.&lt;br&gt;&lt;br&gt;Exemplo de metadata.json:&lt;br&gt;&lt;br&gt;&lt;div&gt;&lt;span style=&quot;font-size: 12px;&quot;&gt;{&lt;/span&gt;&lt;span data-darkreader-inline-color=&quot;&quot; data-darkreader-inline-bgcolor=&quot;&quot; style=&quot;background-color: initial; color: rgb(0, 0, 0); --darkreader-inline-bgcolor: initial; --darkreader-inline-color: #e8e6e3;&quot;&gt;&quot;name&quot;: &quot;Memorial Judaico&quot;,&amp;nbsp;&lt;/span&gt;&lt;/div&gt;&lt;div&gt;&lt;span data-darkreader-inline-color=&quot;&quot; data-darkreader-inline-bgcolor=&quot;&quot; style=&quot;background-color: initial; color: rgb(0, 0, 0); --darkreader-inline-bgcolor: initial; --darkreader-inline-color: #e8e6e3;&quot;&gt;&quot;fields&quot;:[&lt;/span&gt;&lt;/div&gt;&lt;div&gt;&lt;span style=&quot;font-size: 12px; white-space: normal;&quot;&gt;&lt;span style=&quot;white-space:pre&quot;&gt;&#x9;&#x9;&lt;/span&gt;&quot;data-type-element-1&quot;: &quot;text&quot;,&lt;/span&gt;&lt;/div&gt;&lt;div&gt;&lt;span style=&quot;font-size: 12px; white-space: normal;&quot;&gt;&lt;span style=&quot;white-space:pre&quot;&gt;&#x9;&#x9;&lt;/span&gt;&quot;data-type-element-2&quot;: &quot;image&quot;&lt;/span&gt;&lt;/div&gt;&lt;div&gt;&lt;span style=&quot;font-size: 12px; white-space: normal;&quot;&gt;&lt;span style=&quot;white-space:pre&quot;&gt;&#x9;&#x9;&lt;/span&gt;&quot;data-type-element-2&quot;: &quot;text&quot;&lt;/span&gt;&lt;span data-darkreader-inline-color=&quot;&quot; data-darkreader-inline-bgcolor=&quot;&quot; style=&quot;background-color: initial; color: rgb(0, 0, 0); --darkreader-inline-bgcolor: initial; --darkreader-inline-color: #e8e6e3;&quot;&gt;]&lt;/span&gt;&lt;/div&gt;&lt;div&gt;&lt;span data-darkreader-inline-color=&quot;&quot; data-darkreader-inline-bgcolor=&quot;&quot; style=&quot;background-color: initial; color: rgb(0, 0, 0); --darkreader-inline-bgcolor: initial; --darkreader-inline-color: #e8e6e3;&quot;&gt;}&lt;/span&gt;&lt;/div&gt;" style="text;html=1;align=center;verticalAlign=middle;whiteSpace=wrap;rounded=0;" vertex="1" parent="1">
          <mxGeometry x="660" y="140" width="470" height="220" as="geometry" />
        </mxCell>
      </root>
    </mxGraphModel>
  </diagram>
  <diagram id="G9E4f-NOdL25kdyCsKLX" name="Selecting template flow">
    <mxGraphModel dx="1647" dy="848" grid="1" gridSize="10" guides="1" tooltips="1" connect="1" arrows="1" fold="1" page="1" pageScale="1" pageWidth="1169" pageHeight="827" math="0" shadow="0">
      <root>
        <mxCell id="0" />
        <mxCell id="1" parent="0" />
        <mxCell id="jNYyZVm4Viohf4AqFrSK-15" value="&lt;font style=&quot;font-size: 21px;&quot;&gt;&lt;b&gt;Forbys - Selecting template flow&lt;/b&gt;&lt;/font&gt;" style="text;html=1;align=center;verticalAlign=middle;whiteSpace=wrap;rounded=0;" parent="1" vertex="1">
          <mxGeometry x="370" y="40" width="430" height="30" as="geometry" />
        </mxCell>
        <mxCell id="wovtyABd8q-iRptFVRPc-5" style="edgeStyle=orthogonalEdgeStyle;rounded=0;orthogonalLoop=1;jettySize=auto;html=1;strokeWidth=2;" parent="1" source="wovtyABd8q-iRptFVRPc-3" edge="1">
          <mxGeometry relative="1" as="geometry">
            <mxPoint x="440" y="190" as="targetPoint" />
          </mxGeometry>
        </mxCell>
        <mxCell id="wovtyABd8q-iRptFVRPc-6" value="&lt;font style=&quot;font-size: 14px;&quot;&gt;GET /templates&lt;/font&gt;" style="edgeLabel;html=1;align=center;verticalAlign=middle;resizable=0;points=[];" parent="wovtyABd8q-iRptFVRPc-5" vertex="1" connectable="0">
          <mxGeometry x="-0.143" y="1" relative="1" as="geometry">
            <mxPoint y="-12" as="offset" />
          </mxGeometry>
        </mxCell>
        <mxCell id="wovtyABd8q-iRptFVRPc-3" value="" style="shape=image;html=1;verticalAlign=top;verticalLabelPosition=bottom;labelBackgroundColor=#ffffff;imageAspect=0;aspect=fixed;image=https://cdn2.iconfinder.com/data/icons/whcompare-isometric-web-hosting-servers/50/root-access-128.png" parent="1" vertex="1">
          <mxGeometry x="110" y="150" width="80" height="80" as="geometry" />
        </mxCell>
        <mxCell id="wovtyABd8q-iRptFVRPc-7" style="edgeStyle=orthogonalEdgeStyle;rounded=0;orthogonalLoop=1;jettySize=auto;html=1;exitX=0.025;exitY=0.865;exitDx=0;exitDy=0;exitPerimeter=0;strokeWidth=2;dashed=1;" parent="1" edge="1">
          <mxGeometry relative="1" as="geometry">
            <mxPoint x="190" y="220" as="targetPoint" />
            <mxPoint x="437.70000000000005" y="220.81999999999994" as="sourcePoint" />
            <Array as="points">
              <mxPoint x="314" y="221" />
            </Array>
          </mxGeometry>
        </mxCell>
        <mxCell id="wovtyABd8q-iRptFVRPc-4" value="" style="image;aspect=fixed;html=1;points=[];align=center;fontSize=12;image=img/lib/azure2/compute/Azure_Spring_Cloud.svg;" parent="1" vertex="1">
          <mxGeometry x="446" y="162" width="68" height="68" as="geometry" />
        </mxCell>
        <mxCell id="wovtyABd8q-iRptFVRPc-8" value="&lt;font style=&quot;font-size: 14px;&quot;&gt;Client requests templates and the Backend application returns the previously saved template metadata, such as name and thumbnail&lt;/font&gt;" style="rounded=0;whiteSpace=wrap;html=1;" parent="1" vertex="1">
          <mxGeometry x="590" y="121" width="180" height="150" as="geometry" />
        </mxCell>
        <mxCell id="wovtyABd8q-iRptFVRPc-24" style="edgeStyle=orthogonalEdgeStyle;rounded=0;orthogonalLoop=1;jettySize=auto;html=1;strokeWidth=2;" parent="1" source="wovtyABd8q-iRptFVRPc-26" edge="1">
          <mxGeometry relative="1" as="geometry">
            <mxPoint x="470" y="350" as="targetPoint" />
          </mxGeometry>
        </mxCell>
        <mxCell id="wovtyABd8q-iRptFVRPc-25" value="&lt;font style=&quot;font-size: 14px;&quot;&gt;POST /pages&lt;/font&gt;" style="edgeLabel;html=1;align=center;verticalAlign=middle;resizable=0;points=[];" parent="wovtyABd8q-iRptFVRPc-24" vertex="1" connectable="0">
          <mxGeometry x="-0.143" y="1" relative="1" as="geometry">
            <mxPoint y="-12" as="offset" />
          </mxGeometry>
        </mxCell>
        <mxCell id="wovtyABd8q-iRptFVRPc-26" value="" style="shape=image;html=1;verticalAlign=top;verticalLabelPosition=bottom;labelBackgroundColor=#ffffff;imageAspect=0;aspect=fixed;image=https://cdn2.iconfinder.com/data/icons/whcompare-isometric-web-hosting-servers/50/root-access-128.png" parent="1" vertex="1">
          <mxGeometry x="140" y="310" width="80" height="80" as="geometry" />
        </mxCell>
        <mxCell id="wovtyABd8q-iRptFVRPc-27" style="edgeStyle=orthogonalEdgeStyle;rounded=0;orthogonalLoop=1;jettySize=auto;html=1;exitX=0.025;exitY=0.865;exitDx=0;exitDy=0;exitPerimeter=0;strokeWidth=2;dashed=1;" parent="1" edge="1">
          <mxGeometry relative="1" as="geometry">
            <mxPoint x="220" y="380" as="targetPoint" />
            <mxPoint x="467.70000000000005" y="380.81999999999994" as="sourcePoint" />
            <Array as="points">
              <mxPoint x="344" y="381" />
            </Array>
          </mxGeometry>
        </mxCell>
        <mxCell id="wovtyABd8q-iRptFVRPc-28" value="" style="image;aspect=fixed;html=1;points=[];align=center;fontSize=12;image=img/lib/azure2/compute/Azure_Spring_Cloud.svg;" parent="1" vertex="1">
          <mxGeometry x="476" y="322" width="68" height="68" as="geometry" />
        </mxCell>
        <mxCell id="wovtyABd8q-iRptFVRPc-29" value="Client will fill a form and submit it.&lt;br&gt;&lt;br&gt;Backend application must create a new subdomain for that customer. This might need to be an async process.&lt;div&gt;&lt;br&gt;&lt;/div&gt;&lt;div&gt;Backend app must trigger a specific pipeline that will create new Route and then execute deploy of this Route that also publishes the FE Docker images.&lt;/div&gt;&lt;div&gt;&lt;br&gt;&lt;/div&gt;&lt;div&gt;&lt;br&gt;The system must notify (via email, e.g) when the process is done, along with the respective info (URL and the QR code that we will use to engrave on the steel plate).&lt;/div&gt;" style="rounded=0;whiteSpace=wrap;html=1;" parent="1" vertex="1">
          <mxGeometry x="170" y="410" width="230" height="270" as="geometry" />
        </mxCell>
        <mxCell id="LY6ngL7UeslYv_3GHHAQ-1" value="Actor" style="shape=umlActor;verticalLabelPosition=bottom;verticalAlign=top;html=1;outlineConnect=0;" parent="1" vertex="1">
          <mxGeometry x="70" y="320" width="30" height="60" as="geometry" />
        </mxCell>
        <mxCell id="vGjZq-ww3ReWhQGgOl5H-1" value="Actor" style="shape=umlActor;verticalLabelPosition=bottom;verticalAlign=top;html=1;outlineConnect=0;" parent="1" vertex="1">
          <mxGeometry x="70" y="160" width="30" height="60" as="geometry" />
        </mxCell>
      </root>
    </mxGraphModel>
  </diagram>
  <diagram id="qa03aTNKU8M3Vep_g4bb" name="(Deprecated) Accessing the page instance">
    <mxGraphModel dx="1647" dy="848" grid="1" gridSize="10" guides="1" tooltips="1" connect="1" arrows="1" fold="1" page="1" pageScale="1" pageWidth="1169" pageHeight="827" math="0" shadow="0">
      <root>
        <mxCell id="0" />
        <mxCell id="1" parent="0" />
        <mxCell id="xre-QHLoodkeG_uHPROM-14" value="&lt;font style=&quot;font-size: 21px;&quot;&gt;&lt;b&gt;Forbys - Accessing the page instance&lt;/b&gt;&lt;/font&gt;" style="text;html=1;align=center;verticalAlign=middle;whiteSpace=wrap;rounded=0;" parent="1" vertex="1">
          <mxGeometry x="370" y="40" width="430" height="30" as="geometry" />
        </mxCell>
        <mxCell id="xre-QHLoodkeG_uHPROM-15" style="edgeStyle=orthogonalEdgeStyle;rounded=0;orthogonalLoop=1;jettySize=auto;html=1;strokeWidth=2;" parent="1" source="xre-QHLoodkeG_uHPROM-17" edge="1">
          <mxGeometry relative="1" as="geometry">
            <mxPoint x="390" y="429" as="targetPoint" />
          </mxGeometry>
        </mxCell>
        <mxCell id="xre-QHLoodkeG_uHPROM-16" value="&lt;font style=&quot;font-size: 14px;&quot;&gt;GET /&lt;/font&gt;" style="edgeLabel;html=1;align=center;verticalAlign=middle;resizable=0;points=[];" parent="xre-QHLoodkeG_uHPROM-15" vertex="1" connectable="0">
          <mxGeometry x="-0.143" y="1" relative="1" as="geometry">
            <mxPoint y="-12" as="offset" />
          </mxGeometry>
        </mxCell>
        <mxCell id="xre-QHLoodkeG_uHPROM-17" value="" style="shape=image;html=1;verticalAlign=top;verticalLabelPosition=bottom;labelBackgroundColor=#ffffff;imageAspect=0;aspect=fixed;image=https://cdn2.iconfinder.com/data/icons/whcompare-isometric-web-hosting-servers/50/root-access-128.png" parent="1" vertex="1">
          <mxGeometry x="60" y="389" width="80" height="80" as="geometry" />
        </mxCell>
        <mxCell id="xre-QHLoodkeG_uHPROM-18" style="edgeStyle=orthogonalEdgeStyle;rounded=0;orthogonalLoop=1;jettySize=auto;html=1;exitX=0.025;exitY=0.865;exitDx=0;exitDy=0;exitPerimeter=0;strokeWidth=2;dashed=1;" parent="1" edge="1">
          <mxGeometry relative="1" as="geometry">
            <mxPoint x="140" y="459" as="targetPoint" />
            <mxPoint x="387.70000000000005" y="459.81999999999994" as="sourcePoint" />
            <Array as="points">
              <mxPoint x="264" y="460" />
            </Array>
          </mxGeometry>
        </mxCell>
        <mxCell id="xre-QHLoodkeG_uHPROM-19" value="" style="image;aspect=fixed;html=1;points=[];align=center;fontSize=12;image=img/lib/azure2/compute/Azure_Spring_Cloud.svg;" parent="1" vertex="1">
          <mxGeometry x="396" y="401" width="68" height="68" as="geometry" />
        </mxCell>
        <mxCell id="xre-QHLoodkeG_uHPROM-20" value="All the pages instances will have a JavaScript snippet that will fetch content to be injected.&lt;br&gt;&lt;br&gt;&lt;br&gt;Replacement process to be decided to be processed in client-side." style="rounded=0;whiteSpace=wrap;html=1;" parent="1" vertex="1">
          <mxGeometry x="20" y="170" width="180" height="150" as="geometry" />
        </mxCell>
        <mxCell id="xre-QHLoodkeG_uHPROM-26" value="Respective content will be delivered to guest user" style="rounded=0;whiteSpace=wrap;html=1;" parent="1" vertex="1">
          <mxGeometry x="530" y="369" width="200" height="120" as="geometry" />
        </mxCell>
        <mxCell id="bASxn4Mff5cPYVLMBmVU-1" value="Alternative A" style="text;html=1;align=center;verticalAlign=middle;resizable=0;points=[];autosize=1;strokeColor=none;fillColor=none;" parent="1" vertex="1">
          <mxGeometry x="60" y="120" width="90" height="30" as="geometry" />
        </mxCell>
        <mxCell id="bASxn4Mff5cPYVLMBmVU-2" value="Replace process to be performed in the Backend while creating the page itself and saving the static into Nginx." style="rounded=0;whiteSpace=wrap;html=1;" parent="1" vertex="1">
          <mxGeometry x="240" y="170" width="180" height="150" as="geometry" />
        </mxCell>
        <mxCell id="bASxn4Mff5cPYVLMBmVU-3" value="Alternative B" style="text;html=1;align=center;verticalAlign=middle;resizable=0;points=[];autosize=1;strokeColor=none;fillColor=none;" parent="1" vertex="1">
          <mxGeometry x="280" y="120" width="90" height="30" as="geometry" />
        </mxCell>
      </root>
    </mxGraphModel>
  </diagram>
  <diagram name="Pipeline" id="A8hxffHLHmRXauNMcGvZ">
    <mxGraphModel dx="2474" dy="848" grid="1" gridSize="10" guides="1" tooltips="1" connect="1" arrows="1" fold="1" page="1" pageScale="1" pageWidth="827" pageHeight="1169" math="0" shadow="0">
      <root>
        <mxCell id="0" />
        <mxCell id="1" parent="0" />
        <mxCell id="WfoXb9AaUi6uvD6ZLhsA-6" style="edgeStyle=orthogonalEdgeStyle;rounded=0;orthogonalLoop=1;jettySize=auto;html=1;" parent="1" source="WfoXb9AaUi6uvD6ZLhsA-2" target="WfoXb9AaUi6uvD6ZLhsA-3" edge="1">
          <mxGeometry relative="1" as="geometry" />
        </mxCell>
        <mxCell id="WfoXb9AaUi6uvD6ZLhsA-2" value="" style="image;aspect=fixed;perimeter=ellipsePerimeter;html=1;align=center;shadow=0;dashed=0;spacingTop=3;image=img/lib/active_directory/laptop_client.svg;" parent="1" vertex="1">
          <mxGeometry x="-80" y="325" width="45" height="50" as="geometry" />
        </mxCell>
        <mxCell id="WfoXb9AaUi6uvD6ZLhsA-3" value="" style="rounded=0;whiteSpace=wrap;html=1;" parent="1" vertex="1">
          <mxGeometry x="180" y="140" width="780" height="420" as="geometry" />
        </mxCell>
        <mxCell id="WfoXb9AaUi6uvD6ZLhsA-9" style="edgeStyle=orthogonalEdgeStyle;rounded=0;orthogonalLoop=1;jettySize=auto;html=1;entryX=0;entryY=0.5;entryDx=0;entryDy=0;" parent="1" source="WfoXb9AaUi6uvD6ZLhsA-1" target="WfoXb9AaUi6uvD6ZLhsA-4" edge="1">
          <mxGeometry relative="1" as="geometry" />
        </mxCell>
        <mxCell id="WfoXb9AaUi6uvD6ZLhsA-1" value="Ingress" style="rounded=1;whiteSpace=wrap;html=1;" parent="1" vertex="1">
          <mxGeometry x="230" y="300" width="200" height="100" as="geometry" />
        </mxCell>
        <mxCell id="WfoXb9AaUi6uvD6ZLhsA-4" value="Nginx" style="whiteSpace=wrap;html=1;aspect=fixed;" parent="1" vertex="1">
          <mxGeometry x="570" y="310" width="80" height="80" as="geometry" />
        </mxCell>
        <mxCell id="WfoXb9AaUi6uvD6ZLhsA-7" value="http://joao-das-neves.forbys.com" style="text;html=1;align=center;verticalAlign=middle;resizable=0;points=[];autosize=1;strokeColor=none;fillColor=none;" parent="1" vertex="1">
          <mxGeometry x="-25" y="300" width="200" height="30" as="geometry" />
        </mxCell>
        <mxCell id="WfoXb9AaUi6uvD6ZLhsA-8" value="Routes:&lt;br&gt;&lt;span style=&quot;text-wrap: nowrap;&quot;&gt;http://joao-das-neves.forbys.com&lt;/span&gt;&lt;div&gt;&lt;span style=&quot;white-space: pre;&quot;&gt;&#x9;&lt;/span&gt;backend: nginx-service&lt;br&gt;&lt;span style=&quot;white-space: pre;&quot;&gt;&#x9;&lt;/span&gt;path: /template/template1&lt;br&gt;&lt;/div&gt;" style="text;html=1;align=left;verticalAlign=middle;whiteSpace=wrap;rounded=0;" parent="1" vertex="1">
          <mxGeometry x="210" y="375" width="250" height="120" as="geometry" />
        </mxCell>
        <UserObject label="&lt;span data-darkreader-inline-bgcolor=&quot;&quot; data-darkreader-inline-color=&quot;&quot; style=&quot;color: rgb(0, 0, 0); font-family: Helvetica; font-size: 12px; font-style: normal; font-variant-ligatures: normal; font-variant-caps: normal; font-weight: 400; letter-spacing: normal; orphans: 2; text-align: left; text-indent: 0px; text-transform: none; widows: 2; word-spacing: 0px; -webkit-text-stroke-width: 0px; white-space: normal; background-color: rgb(251, 251, 251); text-decoration-thickness: initial; text-decoration-style: initial; text-decoration-color: initial; float: none; --darkreader-inline-color: #e8e6e3; --darkreader-inline-bgcolor: #1a1c1e; display: inline !important;&quot;&gt;Routes:&lt;/span&gt;&lt;br data-darkreader-inline-bgcolor=&quot;&quot; data-darkreader-inline-color=&quot;&quot; style=&quot;color: rgb(0, 0, 0); font-family: Helvetica; font-size: 12px; font-style: normal; font-variant-ligatures: normal; font-variant-caps: normal; font-weight: 400; letter-spacing: normal; orphans: 2; text-align: left; text-indent: 0px; text-transform: none; widows: 2; word-spacing: 0px; -webkit-text-stroke-width: 0px; white-space: normal; background-color: rgb(251, 251, 251); text-decoration-thickness: initial; text-decoration-style: initial; text-decoration-color: initial; --darkreader-inline-color: #e8e6e3; --darkreader-inline-bgcolor: #1a1c1e;&quot;&gt;&lt;span data-darkreader-inline-bgcolor=&quot;&quot; data-darkreader-inline-color=&quot;&quot; style=&quot;color: rgb(0, 0, 0); font-family: Helvetica; font-size: 12px; font-style: normal; font-variant-ligatures: normal; font-variant-caps: normal; font-weight: 400; letter-spacing: normal; orphans: 2; text-align: left; text-indent: 0px; text-transform: none; widows: 2; word-spacing: 0px; -webkit-text-stroke-width: 0px; white-space: nowrap; background-color: rgb(251, 251, 251); text-decoration-thickness: initial; text-decoration-style: initial; text-decoration-color: initial; --darkreader-inline-color: #e8e6e3; --darkreader-inline-bgcolor: #1a1c1e;&quot;&gt;http://api.forbys.com&lt;/span&gt;&lt;div data-darkreader-inline-bgcolor=&quot;&quot; data-darkreader-inline-color=&quot;&quot; style=&quot;color: rgb(0, 0, 0); font-family: Helvetica; font-size: 12px; font-style: normal; font-variant-ligatures: normal; font-variant-caps: normal; font-weight: 400; letter-spacing: normal; orphans: 2; text-align: left; text-indent: 0px; text-transform: none; widows: 2; word-spacing: 0px; -webkit-text-stroke-width: 0px; white-space: normal; background-color: rgb(251, 251, 251); text-decoration-thickness: initial; text-decoration-style: initial; text-decoration-color: initial; --darkreader-inline-color: #e8e6e3; --darkreader-inline-bgcolor: #1a1c1e;&quot;&gt;&lt;span style=&quot;white-space: pre;&quot;&gt;&lt;span style=&quot;white-space: pre;&quot;&gt;&amp;nbsp;&amp;nbsp;&amp;nbsp;&amp;nbsp;&lt;/span&gt;&lt;/span&gt;backend: spring-service&lt;br&gt;&lt;span style=&quot;white-space: pre;&quot;&gt;&lt;span style=&quot;white-space: pre;&quot;&gt;&amp;nbsp;&amp;nbsp;&amp;nbsp;&amp;nbsp;&lt;/span&gt;&lt;/span&gt;path: /api&lt;/div&gt;" link="&lt;span style=&quot;color: rgb(0, 0, 0); font-family: Helvetica; font-size: 12px; font-style: normal; font-variant-ligatures: normal; font-variant-caps: normal; font-weight: 400; letter-spacing: normal; orphans: 2; text-align: left; text-indent: 0px; text-transform: none; widows: 2; word-spacing: 0px; -webkit-text-stroke-width: 0px; white-space: normal; background-color: rgb(251, 251, 251); text-decoration-thickness: initial; text-decoration-style: initial; text-decoration-color: initial; display: inline !important; float: none;&quot;&gt;Routes:&lt;/span&gt;&lt;br style=&quot;color: rgb(0, 0, 0); font-family: Helvetica; font-size: 12px; font-style: normal; font-variant-ligatures: normal; font-variant-caps: normal; font-weight: 400; letter-spacing: normal; orphans: 2; text-align: left; text-indent: 0px; text-transform: none; widows: 2; word-spacing: 0px; -webkit-text-stroke-width: 0px; white-space: normal; background-color: rgb(251, 251, 251); text-decoration-thickness: initial; text-decoration-style: initial; text-decoration-color: initial;&quot;&gt;&lt;span style=&quot;color: rgb(0, 0, 0); font-family: Helvetica; font-size: 12px; font-style: normal; font-variant-ligatures: normal; font-variant-caps: normal; font-weight: 400; letter-spacing: normal; orphans: 2; text-align: left; text-indent: 0px; text-transform: none; widows: 2; word-spacing: 0px; -webkit-text-stroke-width: 0px; white-space: normal; background-color: rgb(251, 251, 251); text-decoration-thickness: initial; text-decoration-style: initial; text-decoration-color: initial; display: inline !important; float: none;&quot;&gt;a:&amp;nbsp;&lt;/span&gt;&lt;span style=&quot;color: rgb(0, 0, 0); font-family: Helvetica; font-size: 12px; font-style: normal; font-variant-ligatures: normal; font-variant-caps: normal; font-weight: 400; letter-spacing: normal; orphans: 2; text-align: left; text-indent: 0px; text-transform: none; widows: 2; word-spacing: 0px; -webkit-text-stroke-width: 0px; white-space: nowrap; background-color: rgb(251, 251, 251); text-decoration-thickness: initial; text-decoration-style: initial; text-decoration-color: initial;&quot;&gt;http://restaurante.template.com&lt;/span&gt;&lt;div style=&quot;color: rgb(0, 0, 0); font-family: Helvetica; font-size: 12px; font-style: normal; font-variant-ligatures: normal; font-variant-caps: normal; font-weight: 400; letter-spacing: normal; orphans: 2; text-align: left; text-indent: 0px; text-transform: none; widows: 2; word-spacing: 0px; -webkit-text-stroke-width: 0px; white-space: normal; background-color: rgb(251, 251, 251); text-decoration-thickness: initial; text-decoration-style: initial; text-decoration-color: initial;&quot;&gt;&lt;span style=&quot;white-space: pre;&quot;&gt;&lt;span style=&quot;white-space: pre;&quot;&gt;&amp;nbsp;&amp;nbsp;&amp;nbsp;&amp;nbsp;&lt;/span&gt;&lt;/span&gt;backend: Nginx-service&lt;br&gt;&lt;span style=&quot;white-space: pre;&quot;&gt;&lt;span style=&quot;white-space: pre;&quot;&gt;&amp;nbsp;&amp;nbsp;&amp;nbsp;&amp;nbsp;&lt;/span&gt;&lt;/span&gt;path: /template/restaurante&lt;/div&gt;" id="WfoXb9AaUi6uvD6ZLhsA-11">
          <mxCell style="text;whiteSpace=wrap;html=1;" parent="1" vertex="1">
            <mxGeometry x="210" y="470" width="210" height="80" as="geometry" />
          </mxCell>
        </UserObject>
        <mxCell id="cAZozw0BLbn9OeAiOFk1-3" value="&lt;div&gt;Files:&lt;br&gt;&lt;span style=&quot;white-space: pre;&quot;&gt;&#x9;&lt;/span&gt;/client-username/index.html&lt;br&gt;&lt;span style=&quot;white-space: pre;&quot;&gt;&#x9;&lt;/span&gt;&lt;span data-darkreader-inline-color=&quot;&quot; data-darkreader-inline-bgcolor=&quot;&quot; style=&quot;background-color: initial; color: rgb(0, 0, 0); --darkreader-inline-bgcolor: initial; --darkreader-inline-color: #e8e6e3;&quot;&gt;/client-username&lt;/span&gt;&lt;span data-darkreader-inline-color=&quot;&quot; data-darkreader-inline-bgcolor=&quot;&quot; style=&quot;background-color: initial; color: rgb(0, 0, 0); --darkreader-inline-bgcolor: initial; --darkreader-inline-color: #e8e6e3;&quot;&gt;/template1/index.css&lt;/span&gt;&lt;/div&gt;&lt;div&gt;&lt;span style=&quot;white-space: pre;&quot;&gt;&#x9;&lt;/span&gt;&lt;span data-darkreader-inline-color=&quot;&quot; data-darkreader-inline-bgcolor=&quot;&quot; style=&quot;background-color: initial; color: rgb(0, 0, 0); --darkreader-inline-bgcolor: initial; --darkreader-inline-color: #e8e6e3;&quot;&gt;/client-username&lt;/span&gt;&lt;span data-darkreader-inline-color=&quot;&quot; data-darkreader-inline-bgcolor=&quot;&quot; style=&quot;background-color: initial; color: rgb(0, 0, 0); --darkreader-inline-bgcolor: initial; --darkreader-inline-color: #e8e6e3;&quot;&gt;/template1/index.js&lt;/span&gt;&lt;/div&gt;&lt;div&gt;&lt;span data-darkreader-inline-color=&quot;&quot; data-darkreader-inline-bgcolor=&quot;&quot; style=&quot;background-color: initial; color: rgb(0, 0, 0); --darkreader-inline-bgcolor: initial; --darkreader-inline-color: #e8e6e3;&quot;&gt;&lt;br&gt;It could be stored either in a shared Persistent Volume or eitheir in one for each client&lt;/span&gt;&lt;/div&gt;" style="text;html=1;align=left;verticalAlign=middle;whiteSpace=wrap;rounded=0;" parent="1" vertex="1">
          <mxGeometry x="680" y="300" width="270" height="120" as="geometry" />
        </mxCell>
      </root>
    </mxGraphModel>
  </diagram>
</mxfile>
